<svg width="64" height="65" viewBox="0 0 64 65" fill="none" xmlns="http://www.w3.org/2000/svg">
<path d="M12 23.5C17 28.6998 27.4394 25 30.5 18.5C33.5606 12 31.5 5.00005 26.155 3.4686C20.8099 1.93716 14.6446 3.46861 10.0994 6.90254C5.55414 10.3365 2.2583 15.0421 2.00936 22.8002C1.76043 30.5583 6.48999 38.8459 14.3311 41.8804C22.1722 44.915 29.6947 43.8074 37.6526 40.772C45.6105 37.7366 54.1882 29.4408 58.8305 20.2661C63.4728 11.0913 62.0632 5.09869 59.3987 3.7832C56.7342 2.46771 49.4849 1.41623 42.539 12.8533C35.5931 24.2903 33.8683 47.7257 20.6786 58.8168C17.9405 61.1193 14.3719 63 9.68595 63C5 63 2 61.0719 2.12397 57.9869C2.24793 54.9019 5.71901 53.2185 9.68595 53.6165C13.6529 54.0146 31.1894 61.4678 40.0947 62.4839C49 63.5 62 62.4839 62 54.0899C62 51.5 59.8987 49 55.5 49.5" stroke="black" stroke-width="4" stroke-linecap="round" stroke-linejoin="round"/>
</svg>
