<svg width="190" height="190" viewBox="0 0 190 190" fill="none" xmlns="http://www.w3.org/2000/svg">
<g filter="url(#filter0_i)">
<path d="M60.2812 30.9588C64.3979 45.5295 83.7879 50.5173 93.5549 40.7381C103.322 30.9588 95.0968 8.10136 77.0752 4.43707C59.0536 0.772787 41.7769 4.43711 27.8381 14.9678C13.8994 25.4985 3.79211 39.9291 3.02872 63.7206C2.26533 87.5122 16.7693 112.928 40.8153 122.233C64.8614 131.539 87.9305 128.143 112.335 118.834C136.739 109.526 163.044 84.0852 177.28 55.9493C191.517 27.8133 187.194 9.43602 179.023 5.40184C170.852 1.36767 148.62 -1.85686 127.32 33.2167C106.019 68.2902 100.73 134.026 60.2812 168.038C51.8842 175.099 43.2647 187 26.5702 187C9.87579 187 3 181.087 3.38017 171.627C3.76033 162.166 14.405 157.003 26.5702 158.224C38.7355 159.445 97.6862 182.297 119.824 185.417C141.961 188.537 162.549 187.526 174.476 178.007C186.403 168.488 187 159.676 187 159.676" stroke="white" stroke-width="5" stroke-linecap="round" stroke-linejoin="round"/>
</g>
<defs>
<filter id="filter0_i" x="0.5" y="0.5" width="189" height="193" filterUnits="userSpaceOnUse" color-interpolation-filters="sRGB">
<feFlood flood-opacity="0" result="BackgroundImageFix"/>
<feBlend mode="normal" in="SourceGraphic" in2="BackgroundImageFix" result="shape"/>
<feColorMatrix in="SourceAlpha" type="matrix" values="0 0 0 0 0 0 0 0 0 0 0 0 0 0 0 0 0 0 127 0" result="hardAlpha"/>
<feOffset dy="4"/>
<feGaussianBlur stdDeviation="2"/>
<feComposite in2="hardAlpha" operator="arithmetic" k2="-1" k3="1"/>
<feColorMatrix type="matrix" values="0 0 0 0 0 0 0 0 0 0 0 0 0 0 0 0 0 0 0.21 0"/>
<feBlend mode="normal" in2="shape" result="effect1_innerShadow"/>
</filter>
</defs>
</svg>
